<svg xmlns="http://www.w3.org/2000/svg" viewBox="0 0 384 512">
<path fill="white" d="M318.7 268.7c-.3-37.7 30.7-55.8 32.1-56.6-17.5-25.5-44.7-29-54.3-29.4-23.1-2.3-45.1 13.6-56.9 13.6s-30.1-13.3-49.5-13c-25.5.4-49 14.8-62.1 37.5-26.5 46-6.8 114.1 19 151.4 12.6 18.3 27.6 38.9 47.3 38.2 19-.8 26.2-12.3 49.2-12.3s29.6 12.3 49.6 11.9c20.5-.4 33.4-18.6 45.9-36.9 14.5-21.2 20.5-41.7 20.8-42.8-.5-.2-39.9-15.3-40.3-60.6zM269.2 128c10.4-12.6 17.4-30.1 15.5-47.6-15 .6-33.2 10-43.9 22.6-9.7 11.3-18.2 29.2-15.9 46.4 16.7 1.3 33.9-8.5 44.3-21.4z"></path>
</svg>