<svg xmlns="http://www.w3.org/2000/svg" viewBox="0 0 168 168">
<path fill="white" d="M84 0a84 84 0 1 0 0 168 84 84 0 0 0 0-168zm38.7 121.3c-1.5 2.5-4.6 3.3-7.1 1.8-19.5-12-44-14.7-72.8-8.1-2.9.7-5.7-1.2-6.4-4-.7-2.9 1.2-5.7 4-6.4 31.4-7.1 58.3-4 80.6 9.1 2.5 1.5 3.3 4.6 1.7 7.6zm10-22.3c-1.9 3-5.7 4-8.7 2.1-22.3-13.7-56.3-17.7-82.7-9.7-3.3 1-6.7-.9-7.7-4.2-1-3.3.9-6.7 4.2-7.7 30.5-9.2 68.4-4.7 92.8 11 3 1.9 4 5.7 2.1 8.5zm.9-23.3C106.4 58.9 61.6 57.7 36.6 65c-3.8 1.1-7.7-1-8.8-4.8-1.1-3.8 1-7.7 4.8-8.8 29.1-8.4 77.5-7 109.1 12 3.4 2 4.5 6.4 2.5 9.8-2.1 3.4-6.5 4.5-9.6 2.5z"></path>
</svg>